<svg xmlns="http://www.w3.org/2000/svg" xmlns:xlink="http://www.w3.org/1999/xlink" width="23.501" height="23.501" viewBox="0 0 23.501 23.501"><defs><clipPath id="a"><rect width="23.501" height="23.501" fill="#fff" stroke="#707070" stroke-width="1"/></clipPath></defs><g clip-path="url(#a)"><g transform="translate(1.567 1.664)"><path d="M20.293,7.941a1.362,1.362,0,0,0-1-.412H13.176V1.412a1.362,1.362,0,0,0-.412-1,1.362,1.362,0,0,0-1-.412H8.941a1.361,1.361,0,0,0-1,.412,1.361,1.361,0,0,0-.412,1V7.529H1.412a1.361,1.361,0,0,0-1,.412,1.361,1.361,0,0,0-.412,1v2.823a1.36,1.36,0,0,0,.412,1,1.361,1.361,0,0,0,1,.412H7.529v6.118A1.405,1.405,0,0,0,8.941,20.7h2.823a1.405,1.405,0,0,0,1.412-1.411V13.176h6.117A1.406,1.406,0,0,0,20.7,11.764V8.941A1.361,1.361,0,0,0,20.293,7.941Z" transform="translate(0 0)" fill="#fff"/></g></g></svg>